#N canvas 249 85 1645 875 12;
#X obj 444 611 dac~;
#X obj 308 316 osc~;
#X floatatom 308 279 5 0 0 0 - - - 0;
#X obj 374 316 osc~;
#X obj 453 214 vsl 19 162 0 1 0 0 empty empty empty 0 -9 0 12 #fcfcfc #000000 #000000 0 1;
#X floatatom 374 279 5 0 0 0 - - - 0;
#X obj 358 373 +~;
#X obj 417 483 *~;
#X floatatom 453 411 5 0 0 0 - - - 0;
#X obj 720 365 noise~;
#X obj 659 211 vsl 19 162 0 1 0 0 empty empty empty 0 -9 0 12 #fcfcfc #000000 #000000 0 1;
#X obj 609 440 *~;
#X floatatom 659 422 5 0 0 0 - - - 0;
#X obj 608 398 pink~, f 6;
#X obj 842 397 fexpr~ if(abs($x+$y)>1.0 \, $y-$x \, $x+$y);
#X obj 772 221 vsl 19 162 0 1 0 0 empty empty empty 0 -9 0 12 #fcfcfc #000000 #000000 0 1;
#X obj 722 436 *~;
#X floatatom 772 418 5 0 0 0 - - - 0;
#X obj 910 218 vsl 19 162 0 1 0 0 empty empty empty 0 -9 0 12 #fcfcfc #000000 #000000 0 1;
#X obj 842 439 *~;
#X floatatom 910 420 5 0 0 0 - - - 0;
#X obj 841 351 *~;
#X obj 861 299 hsl 32 32 0 1 0 0 empty empty empty -2 -10 0 12 #fcfcfc #000000 #000000 0 1;
#X msg 307 235 222;
#X msg 368 215 444;
#X msg 358 192 333;
#X msg 348 166 296;
#X msg 339 139 277.5;
#X msg 328 115 266.4;
#X msg 310 89 253.71;
#X msg 289 66 249.75;
#X obj 110 296 osc~;
#X floatatom 110 259 5 0 0 0 - - - 0;
#X obj 176 296 osc~;
#X obj 255 204 vsl 19 162 0 1 0 0 empty empty empty 0 -9 0 12 #fcfcfc #000000 #000000 0 1;
#X floatatom 176 259 5 0 0 0 - - - 0;
#X obj 160 353 +~;
#X obj 233 480 *~;
#X floatatom 255 391 5 0 0 0 - - - 0;
#X msg 109 215 222;
#X msg 170 195 444;
#X msg 160 172 333;
#X msg 150 146 296;
#X msg 141 119 277.5;
#X msg 130 95 266.4;
#X msg 112 69 253.71;
#X msg 91 46 249.75;
#X obj 841 260 noise~;
#X msg 497 37 https://sunreed.com/the-use-of-harmonies-in-therapeutic-sound-healing/ Generally the simpler the mathematical proportion \, or the more frequent the higher and lower tones complete together \, the more harmonic they sound together. In the sound files below \, you can hear these four major harmonics. Also \, you can hear the harmonic relationship represented by the proportions 6/5 \, 7/6 \, 8/7 and 9/8. Listen to one after another to hear the harmonies in progression. You can hear how the harmonic quality decreases as the two tones begin to meet with greater infrequency. The fundamental tone in all these examples is A at 222hz., f 94;
#X connect 1 0 6 0;
#X connect 2 0 1 0;
#X connect 3 0 6 1;
#X connect 4 0 8 0;
#X connect 5 0 3 0;
#X connect 6 0 7 0;
#X connect 7 0 0 1;
#X connect 8 0 7 1;
#X connect 9 0 16 0;
#X connect 10 0 12 0;
#X connect 11 0 0 1;
#X connect 11 0 0 0;
#X connect 12 0 11 1;
#X connect 13 0 11 0;
#X connect 14 0 19 0;
#X connect 15 0 17 0;
#X connect 16 0 0 1;
#X connect 16 0 0 0;
#X connect 17 0 16 1;
#X connect 18 0 20 0;
#X connect 19 0 0 0;
#X connect 19 0 0 1;
#X connect 20 0 19 1;
#X connect 21 0 14 0;
#X connect 22 0 21 1;
#X connect 23 0 2 0;
#X connect 24 0 5 0;
#X connect 25 0 5 0;
#X connect 26 0 5 0;
#X connect 27 0 5 0;
#X connect 28 0 5 0;
#X connect 29 0 5 0;
#X connect 30 0 5 0;
#X connect 31 0 36 0;
#X connect 32 0 31 0;
#X connect 33 0 36 1;
#X connect 34 0 38 0;
#X connect 35 0 33 0;
#X connect 36 0 37 0;
#X connect 37 0 0 0;
#X connect 38 0 37 1;
#X connect 39 0 32 0;
#X connect 40 0 35 0;
#X connect 41 0 35 0;
#X connect 42 0 35 0;
#X connect 43 0 35 0;
#X connect 44 0 35 0;
#X connect 45 0 35 0;
#X connect 46 0 35 0;
#X connect 47 0 21 0;
