#N canvas 1170 96 1350 875 12;
#X obj 337 603 dac~;
#X obj 452 322 osc~;
#X floatatom 452 285 5 0 0 0 - - - 0;
#X obj 518 322 osc~;
#X obj 597 220 vsl 19 162 0 1 0 0 empty empty empty 0 -9 0 12 #fcfcfc #000000 #000000 0 1;
#X floatatom 518 285 5 0 0 0 - - - 0;
#X obj 502 379 +~;
#X obj 531 448 *~;
#X floatatom 597 417 5 0 0 0 - - - 0;
#X obj 358 322 osc~;
#X floatatom 346 286 5 0 0 0 - - - 0;
#X obj 407 320 osc~;
#X floatatom 403 284 5 0 0 0 - - - 0;
#X obj 140 308 osc~;
#X floatatom 140 271 5 0 0 0 - - - 0;
#X obj 206 308 osc~;
#X obj 285 206 vsl 19 162 0 1 0 0 empty empty empty 0 -9 0 12 #fcfcfc #000000 #000000 0 1;
#X floatatom 206 271 5 0 0 0 - - - 0;
#X obj 190 365 +~;
#X obj 249 475 *~;
#X floatatom 285 403 5 0 0 0 - - - 0;
#X obj 46 308 osc~;
#X floatatom 34 272 5 0 0 0 - - - 0;
#X obj 95 306 osc~;
#X floatatom 91 270 5 0 0 0 - - - 0;
#X msg 362 377 0.2;
#X obj 789 368 noise~;
#X obj 730 245 vsl 19 162 0 1 0 0 empty empty empty 0 -9 0 12 #fcfcfc #000000 #000000 0 1;
#X obj 680 460 *~;
#X floatatom 730 442 5 0 0 0 - - - 0;
#X obj 675 418 pink~, f 6;
#X obj 919 417 fexpr~ if(abs($x+$y)>1.0 \, $y-$x \, $x+$y);
#X obj 843 241 vsl 19 162 0 1 0 0 empty empty empty 0 -9 0 12 #fcfcfc #000000 #000000 0 1;
#X obj 793 456 *~;
#X floatatom 843 438 5 0 0 0 - - - 0;
#X obj 978 239 vsl 19 162 0 1 0 0 empty empty empty 0 -9 0 12 #fcfcfc #000000 #000000 0 1;
#X obj 931 458 *~;
#X floatatom 981 440 5 0 0 0 - - - 0;
#X obj 912 371 *~;
#X obj 926 314 hsl 32 32 0 1 0 0 empty empty empty -2 -10 0 12 #fcfcfc #000000 #000000 0 1;
#X msg 343 217 222;
#X msg 384 216 222;
#X msg 431 214 333;
#X msg 502 209 333;
#X msg 30 203 222;
#X msg 71 202 222;
#X msg 119 200 333;
#X msg 190 195 333;
#X connect 1 0 6 0;
#X connect 2 0 1 0;
#X connect 3 0 6 1;
#X connect 4 0 8 0;
#X connect 5 0 3 0;
#X connect 6 0 7 0;
#X connect 7 0 0 1;
#X connect 8 0 7 1;
#X connect 9 0 6 0;
#X connect 10 0 9 0;
#X connect 11 0 6 0;
#X connect 12 0 11 0;
#X connect 13 0 18 0;
#X connect 14 0 13 0;
#X connect 15 0 18 1;
#X connect 16 0 20 0;
#X connect 17 0 15 0;
#X connect 18 0 19 0;
#X connect 19 0 0 0;
#X connect 20 0 19 1;
#X connect 21 0 18 0;
#X connect 22 0 21 0;
#X connect 23 0 18 0;
#X connect 24 0 23 0;
#X connect 25 0 20 0;
#X connect 25 0 8 0;
#X connect 26 0 33 0;
#X connect 26 0 38 0;
#X connect 27 0 29 0;
#X connect 28 0 0 1;
#X connect 28 0 0 0;
#X connect 29 0 28 1;
#X connect 30 0 28 0;
#X connect 31 0 36 0;
#X connect 32 0 34 0;
#X connect 33 0 0 1;
#X connect 33 0 0 0;
#X connect 34 0 33 1;
#X connect 35 0 37 0;
#X connect 36 0 0 0;
#X connect 36 0 0 1;
#X connect 37 0 36 1;
#X connect 38 0 31 0;
#X connect 39 0 38 1;
#X connect 40 0 10 0;
#X connect 41 0 12 0;
#X connect 42 0 2 0;
#X connect 43 0 5 0;
#X connect 44 0 22 0;
#X connect 45 0 24 0;
#X connect 46 0 14 0;
#X connect 47 0 17 0;
