#N canvas 130 130 1011 540 12;
#X obj 245 375 dac~;
#X obj 192 251 osc~;
#X obj 174 21 vsl 19 162 300 400 0 0 empty empty empty 0 -9 0 12 #fcfcfc #000000 #000000 0 1;
#X floatatom 179 203 5 0 0 0 - - - 0;
#X obj 239 26 vsl 19 162 0 1 0 0 empty empty volume 0 -9 0 12 #fcfcfc #000000 #000000 0 1;
#X obj 212 302 *~, f 4;
#X obj 336 253 osc~;
#X obj 318 23 vsl 19 162 300 400 0 0 empty empty empty 0 -9 0 12 #fcfcfc #000000 #000000 0 1;
#X floatatom 326 204 5 0 0 0 - - - 0;
#X obj 383 28 vsl 19 162 0 1 0 0 empty empty volume 0 -9 0 12 #fcfcfc #000000 #000000 0 1;
#X obj 356 304 *~, f 4;
#X msg 513 77 https://puredata.info/docs/manuals/pd/ ctrl+1 to create an object type dac~ to create a digital to analogue out osc~ will create an oscillator \, give the left side a number vslider or hslider will output a number ctrl+3 will create a number box which you can edit manually or control with an input *~ +~ /~ etc will do math richt click on objects to see properties and get help;
#X connect 1 0 5 0;
#X connect 2 0 3 0;
#X connect 3 0 1 0;
#X connect 4 0 5 1;
#X connect 5 0 0 0;
#X connect 6 0 10 0;
#X connect 7 0 8 0;
#X connect 8 0 6 0;
#X connect 9 0 10 1;
#X connect 10 0 0 1;
