#N canvas 10 134 450 517 12;
#X floatatom 216 87 5 0 0 0 - - - 0;
#X obj 147 55 adc~;
#X obj 186 265 dac~;
#X obj 216 129 osc~;
#X obj 196 216 *~;
#X obj 216 -94 vsl 19 162 0 1000 0 0 empty empty empty 0 -9 0 12 #fcfcfc #000000 #000000 0 1;
#X obj 148 125 *~;
#X floatatom 166 87 5 0 0 0 - - - 0;
#X obj 197 168 *~;
#X connect 0 0 3 0;
#X connect 1 0 6 0;
#X connect 3 0 8 1;
#X connect 4 0 2 1;
#X connect 4 0 2 0;
#X connect 5 0 0 0;
#X connect 6 0 8 0;
#X connect 7 0 6 1;
#X connect 8 0 4 0;
